<svg xmlns="http://www.w3.org/2000/svg" width="256" height="256" viewBox="0 0 256 256">
  <defs>
    <linearGradient id="bg" x1="32" y1="20" x2="224" y2="236" gradientUnits="userSpaceOnUse">
      <stop offset="0" stop-color="#102A44"/>
      <stop offset="1" stop-color="#071624"/>
    </linearGradient>
    <linearGradient id="xray" x1="72" y1="48" x2="184" y2="210" gradientUnits="userSpaceOnUse">
      <stop offset="0" stop-color="#E9FBFF"/>
      <stop offset="1" stop-color="#6DE3FF"/>
    </linearGradient>
  </defs>
  <rect x="18" y="18" width="220" height="220" rx="46" fill="url(#bg)"/>
  <rect x="42" y="38" width="172" height="180" rx="18" fill="#0B1F35" stroke="#4FC3F7" stroke-width="8"/>
  <path d="M127 65c-12 18-18 38-20 59-2 27 4 53 14 73h14c10-20 16-46 14-73-2-21-8-41-20-59h-2z"
        fill="#DFFBFF" opacity=".9"/>
  <path d="M113 93c-21-24-52-23-58 12-7 38 14 76 50 89 9-27 8-66 8-101z"
        fill="url(#xray)" opacity=".88"/>
  <path d="M143 93c21-24 52-23 58 12 7 38-14 76-50 89-9-27-8-66-8-101z"
        fill="url(#xray)" opacity=".88"/>
  <path d="M87 88c13 10 27 15 41 15s28-5 41-15M79 119c17 9 33 14 49 14s32-5 49-14M82 151c15 8 30 12 46 12s31-4 46-12"
        fill="none" stroke="#102A44" stroke-width="7" opacity=".45" stroke-linecap="round"/>
  <circle cx="128" cy="87" r="6" fill="#0B1F35" opacity=".6"/>
  <circle cx="128" cy="119" r="6" fill="#0B1F35" opacity=".6"/>
  <circle cx="128" cy="151" r="6" fill="#0B1F35" opacity=".6"/>
</svg>
