<svg xmlns="http://www.w3.org/2000/svg" width="960" height="540" viewBox="0 0 960 540" role="img" aria-label="Cases tab overview">
  <rect width="960" height="540" fill="#eef5f9"/>
  <rect x="0" y="0" width="180" height="540" fill="#0b1f35"/>
  <rect x="24" y="32" width="58" height="48" rx="10" fill="#173a63"/>
  <text x="53" y="63" text-anchor="middle" font-family="Segoe UI, Arial" font-size="18" font-weight="700" fill="#dbeafe">RP</text>
  <text x="24" y="112" font-family="Segoe UI, Arial" font-size="16" font-weight="700" fill="#ffffff">Radiopaedia Case</text>
  <text x="24" y="134" font-family="Segoe UI, Arial" font-size="16" font-weight="700" fill="#ffffff">PowerPoint Builder</text>
  <rect x="22" y="180" width="136" height="36" fill="#d9e5ee"/>
  <text x="90" y="203" text-anchor="middle" font-family="Segoe UI, Arial" font-size="14" font-weight="700" fill="#0b1f35">Cases</text>
  <rect x="22" y="230" width="136" height="36" fill="#f0f4f8"/>
  <text x="90" y="253" text-anchor="middle" font-family="Segoe UI, Arial" font-size="14" fill="#0b1f35">PowerPoint</text>
  <text x="210" y="58" font-family="Segoe UI, Arial" font-size="28" font-weight="700" fill="#102132">Cases</text>
  <text x="210" y="88" font-family="Segoe UI, Arial" font-size="16" fill="#516b80">Add diagnoses, random pulls, or exact Radiopaedia URLs.</text>
  <rect x="730" y="36" width="70" height="38" fill="#ffffff" stroke="#c9d7e2"/>
  <text x="765" y="60" text-anchor="middle" font-family="Segoe UI, Arial" font-size="14" font-weight="700" fill="#102132">Add Row</text>
  <rect x="812" y="36" width="98" height="38" fill="#ffffff" stroke="#c9d7e2"/>
  <text x="861" y="60" text-anchor="middle" font-family="Segoe UI, Arial" font-size="14" font-weight="700" fill="#102132">Load File</text>
  <rect x="210" y="118" width="710" height="360" rx="12" fill="#ffffff" stroke="#c9d7e2"/>
  <rect x="230" y="148" width="670" height="34" fill="#f7fafc" stroke="#d7e3ec"/>
  <text x="244" y="171" font-family="Segoe UI, Arial" font-size="14" font-weight="700" fill="#102132">Type</text>
  <text x="375" y="171" font-family="Segoe UI, Arial" font-size="14" font-weight="700" fill="#102132">Diagnosis / Random Text / URL</text>
  <text x="616" y="171" font-family="Segoe UI, Arial" font-size="14" font-weight="700" fill="#102132">Modality</text>
  <text x="722" y="171" font-family="Segoe UI, Arial" font-size="14" font-weight="700" fill="#102132">Area</text>
  <rect x="230" y="182" width="670" height="42" fill="#ffffff" stroke="#d7e3ec"/>
  <text x="244" y="208" font-family="Segoe UI, Arial" font-size="14" fill="#102132">Specific Diagnosis</text>
  <text x="375" y="208" font-family="Segoe UI, Arial" font-size="14" fill="#102132">multiple sclerosis</text>
  <text x="616" y="208" font-family="Segoe UI, Arial" font-size="14" fill="#102132">MRI</text>
  <text x="722" y="208" font-family="Segoe UI, Arial" font-size="14" fill="#102132">Neuro</text>
  <rect x="230" y="224" width="670" height="42" fill="#ffffff" stroke="#d7e3ec"/>
  <text x="244" y="250" font-family="Segoe UI, Arial" font-size="14" fill="#102132">Random Case</text>
  <text x="375" y="250" font-family="Segoe UI, Arial" font-size="14" fill="#516b80">optional text</text>
  <text x="616" y="250" font-family="Segoe UI, Arial" font-size="14" fill="#102132">CT</text>
  <text x="722" y="250" font-family="Segoe UI, Arial" font-size="14" fill="#102132">MSK</text>
  <path d="M230 322 H900" stroke="#0f766e" stroke-width="3"/>
  <text x="230" y="352" font-family="Segoe UI, Arial" font-size="15" fill="#0f766e">Use dropdowns instead of typing shorthand.</text>
</svg>
