<svg xmlns="http://www.w3.org/2000/svg" width="960" height="540" viewBox="0 0 960 540" role="img" aria-label="Review window overview">
  <rect width="960" height="540" fill="#f8fafc"/>
  <text x="34" y="54" font-family="Segoe UI, Arial" font-size="28" font-weight="700" fill="#102132">Case Review 1 of 5</text>
  <text x="34" y="94" font-family="Segoe UI, Arial" font-size="22" font-weight="700" fill="#102132">Example Radiology Case</text>
  <text x="34" y="124" font-family="Segoe UI, Arial" font-size="15" fill="#516b80">The patient is a 50-year-old female.</text>
  <text x="34" y="154" font-family="Segoe UI, Arial" font-size="14" font-weight="700" fill="#0f766e">Quality: 3 relevant images selected.</text>
  <rect x="804" y="36" width="120" height="38" fill="#ffffff" stroke="#aebdca"/>
  <text x="864" y="60" text-anchor="middle" font-family="Segoe UI, Arial" font-size="13" font-weight="700" fill="#102132">Cancel Review</text>
  <g font-family="Segoe UI, Arial" font-size="14" fill="#102132">
    <rect x="34" y="184" width="64" height="30" fill="#ffffff" stroke="#aebdca"/>
    <text x="66" y="204" text-anchor="middle">Images</text>
    <rect x="98" y="184" width="62" height="30" fill="#edf2f7" stroke="#aebdca"/>
    <text x="129" y="204" text-anchor="middle">Details</text>
    <rect x="160" y="184" width="86" height="30" fill="#edf2f7" stroke="#aebdca"/>
    <text x="203" y="204" text-anchor="middle">Candidates</text>
  </g>
  <rect x="34" y="214" width="890" height="246" rx="12" fill="#ffffff" stroke="#c9d7e2"/>
  <text x="58" y="250" font-family="Segoe UI, Arial" font-size="14" font-weight="700" fill="#102132">Selected Images</text>
  <text x="542" y="250" font-family="Segoe UI, Arial" font-size="13" font-weight="700" fill="#102132">Images</text>
  <rect x="596" y="232" width="42" height="26" fill="#ffffff" stroke="#aebdca"/>
  <text x="610" y="250" font-family="Segoe UI, Arial" font-size="13" fill="#102132">3</text>
  <text x="676" y="250" font-family="Segoe UI, Arial" font-size="13" font-weight="700" fill="#102132">Crop</text>
  <rect x="718" y="232" width="100" height="26" fill="#f7fafc" stroke="#aebdca"/>
  <text x="730" y="250" font-family="Segoe UI, Arial" font-size="13" fill="#102132">Default</text>
  <rect x="58" y="280" width="250" height="142" rx="8" fill="#f7fafc" stroke="#c9d7e2"/>
  <rect x="72" y="306" width="222" height="88" fill="#0b0f14"/>
  <circle cx="183" cy="350" r="34" fill="#d7dde5"/>
  <text x="72" y="408" font-family="Segoe UI, Arial" font-size="13" fill="#102132">☑ Keep this image</text>
  <rect x="354" y="280" width="250" height="142" rx="8" fill="#f7fafc" stroke="#c9d7e2"/>
  <rect x="368" y="306" width="222" height="88" fill="#0b0f14"/>
  <circle cx="479" cy="350" r="30" fill="#d7dde5"/>
  <text x="368" y="408" font-family="Segoe UI, Arial" font-size="13" fill="#102132">☑ Keep this image</text>
  <rect x="650" y="280" width="250" height="142" rx="8" fill="#f7fafc" stroke="#c9d7e2"/>
  <rect x="664" y="306" width="222" height="88" fill="#0b0f14"/>
  <circle cx="775" cy="350" r="22" fill="#d7dde5"/>
  <text x="664" y="408" font-family="Segoe UI, Arial" font-size="13" fill="#102132">☐ Keep this image</text>
  <rect x="34" y="482" width="122" height="36" rx="3" fill="#0f766e"/>
  <text x="95" y="505" text-anchor="middle" font-family="Segoe UI, Arial" font-size="13" font-weight="700" fill="#ffffff">Keep &amp; Next</text>
  <rect x="168" y="482" width="92" height="36" fill="#ffffff" stroke="#c9d7e2"/>
  <text x="214" y="505" text-anchor="middle" font-family="Segoe UI, Arial" font-size="13" fill="#102132">Skip</text>
  <rect x="272" y="482" width="102" height="36" fill="#ffffff" stroke="#c9d7e2"/>
  <text x="323" y="505" text-anchor="middle" font-family="Segoe UI, Arial" font-size="13" fill="#102132">Reroll</text>
  <rect x="386" y="482" width="120" height="36" fill="#ffffff" stroke="#c9d7e2"/>
  <text x="446" y="505" text-anchor="middle" font-family="Segoe UI, Arial" font-size="13" fill="#102132">Re-pick Images</text>
  <rect x="518" y="482" width="138" height="36" fill="#ffffff" stroke="#c9d7e2"/>
  <text x="587" y="505" text-anchor="middle" font-family="Segoe UI, Arial" font-size="13" fill="#102132">Replace Unchecked</text>
  <rect x="668" y="482" width="134" height="36" fill="#ffffff" stroke="#c9d7e2"/>
  <text x="735" y="505" text-anchor="middle" font-family="Segoe UI, Arial" font-size="13" fill="#102132">Remove Unchecked</text>
  <rect x="816" y="482" width="108" height="36" fill="#ffffff" stroke="#c9d7e2"/>
  <text x="870" y="505" text-anchor="middle" font-family="Segoe UI, Arial" font-size="13" fill="#102132">Cancel Action</text>
</svg>
